<svg width="17" height="17" viewBox="0 0 17 17" fill="none" xmlns="http://www.w3.org/2000/svg">
<path d="M17.0007 7.36426C17.0006 8.02313 16.7374 8.65588 16.2712 9.12207L9.12183 16.2725C8.15076 17.2434 6.57635 17.2433 5.60522 16.2725L0.728271 11.3955C-0.242826 10.4244 -0.242729 8.85006 0.728271 7.87891L7.87866 0.728515C8.34493 0.262414 8.97759 -3.5066e-07 9.63647 -3.21859e-07L15.7566 -5.43404e-08C16.4429 -2.43416e-08 17.0006 0.556909 17.0007 1.24316V7.36426ZM13.5808 4.97461C13.5808 4.11623 12.8845 3.42002 12.0261 3.41992C11.1679 3.42011 10.4724 4.11629 10.4724 4.97461C10.4728 5.83262 11.1681 6.52813 12.0261 6.52832C12.8843 6.52823 13.5804 5.83268 13.5808 4.97461Z" fill="#87CCBA"/>
</svg>
