<svg width="16" height="16" viewBox="0 0 16 16" fill="none" xmlns="http://www.w3.org/2000/svg">
<path d="M6.67188 0C7.40098 0 8.10072 0.29021 8.61621 0.805664L14.3662 6.55566C15.4401 7.62956 15.4401 9.37044 14.3662 10.4443L10.4443 14.3662C9.37044 15.4401 7.62956 15.4401 6.55566 14.3662L0.805664 8.61621C0.29021 8.10072 0 7.40098 0 6.67188V1.75C0 0.783786 0.783786 0 1.75 0H6.67188ZM1.75 1.5C1.61221 1.5 1.5 1.61221 1.5 1.75V6.67188C1.5 7.00271 1.63174 7.32116 1.86621 7.55566L7.61621 13.3057C8.10432 13.7938 8.89568 13.7938 9.38379 13.3057L13.3057 9.38379C13.7938 8.89568 13.7938 8.10432 13.3057 7.61621L7.55566 1.86621C7.32116 1.63174 7.00271 1.5 6.67188 1.5H1.75ZM4.75 3.5C5.44036 3.5 6 4.05964 6 4.75C6 5.44036 5.44036 6 4.75 6C4.05964 6 3.5 5.44036 3.5 4.75C3.5 4.05964 4.05964 3.5 4.75 3.5Z" fill="#666666"/>
</svg>
