<svg width="17" height="18" viewBox="0 0 17 18" fill="none" xmlns="http://www.w3.org/2000/svg">
<path d="M8.18164 0C10.4373 0 12.2734 1.83513 12.2734 4.09082V6.5459H13.9092C15.2624 6.54595 16.3633 7.64676 16.3633 9V15.5459C16.363 16.8989 15.2623 18 13.9092 18H2.4541C1.10118 17.9998 0.000248222 16.8988 0 15.5459V9C0 7.64687 1.10103 6.54614 2.4541 6.5459H4.09082V4.09082C4.09087 1.83529 5.92616 0.000254754 8.18164 0ZM8.18164 9.81836C7.27941 9.81846 6.54613 10.5519 6.5459 11.4541C6.5459 12.057 6.87665 12.5793 7.36328 12.8633V14.7275H9V12.8633C9.48678 12.5794 9.81836 12.0571 9.81836 11.4541C9.81813 10.5518 9.08395 9.81836 8.18164 9.81836ZM8.18164 1.63672C6.82861 1.63697 5.72759 2.73774 5.72754 4.09082V6.5459H10.6367V4.09082C10.6367 2.73759 9.53488 1.63672 8.18164 1.63672Z" fill="white"/>
</svg>
